<svg id="Layer_1" data-name="Layer 1" xmlns="http://www.w3.org/2000/svg" viewBox="0 0 35 35"><defs><style>.cls-1{fill:#acacac;}</style></defs><title>_</title><path class="cls-1" d="M20.76,21a9.13,9.13,0,0,1,2.62,1.4,9.26,9.26,0,0,1,2,2.08,9.5,9.5,0,0,1,1.25,2.59A9.82,9.82,0,0,1,27,30.05H25.68a8.35,8.35,0,0,0-.62-3.24,7.84,7.84,0,0,0-4.32-4.32,8.66,8.66,0,0,0-5.44-.34,8.21,8.21,0,0,0-2,.82,8,8,0,0,0-2.92,2.92,8.29,8.29,0,0,0-1.1,4.16H8a9.56,9.56,0,0,1,1.72-5.51,9.37,9.37,0,0,1,2-2.07,9.67,9.67,0,0,1,2.6-1.42,6.74,6.74,0,0,1-2.62-2.51,7,7,0,0,1-.71-1.67,6.86,6.86,0,0,1,.28-4.49,6.82,6.82,0,0,1,3.63-3.63,6.9,6.9,0,0,1,5.32,0,6.82,6.82,0,0,1,3.63,3.63,6.84,6.84,0,0,1,.28,4.48,6.92,6.92,0,0,1-.71,1.66A7.07,7.07,0,0,1,22.24,20,6.59,6.59,0,0,1,20.76,21ZM12,15a5.25,5.25,0,0,0,.43,2.12,5.53,5.53,0,0,0,2.9,2.9,5.42,5.42,0,0,0,4.24,0,5.53,5.53,0,0,0,2.9-2.9,5.43,5.43,0,0,0,0-4.24,5.53,5.53,0,0,0-2.9-2.9,5.42,5.42,0,0,0-4.24,0,5.53,5.53,0,0,0-2.9,2.9A5.25,5.25,0,0,0,12,15Z"/><path class="cls-1" d="M27.51,30.52h-2.3v-.47A7.93,7.93,0,0,0,24.63,27a7.38,7.38,0,0,0-4.06-4.06,8.2,8.2,0,0,0-5.14-.32,7.77,7.77,0,0,0-1.85.77,7.52,7.52,0,0,0-2.75,2.75,7.83,7.83,0,0,0-1,3.93v.47H7.49v-.47a10,10,0,0,1,1.8-5.78,9.88,9.88,0,0,1,2.09-2.17A10,10,0,0,1,13.24,21a7.09,7.09,0,0,1-.8-.67,7.26,7.26,0,0,1-1.2-1.52A7.53,7.53,0,0,1,10.48,17a7.33,7.33,0,0,1,.3-4.8,7.29,7.29,0,0,1,13.43,0,7.31,7.31,0,0,1,.3,4.79,7.4,7.4,0,0,1-.76,1.77,7.59,7.59,0,0,1-1.19,1.52,7,7,0,0,1-.78.66,9.46,9.46,0,0,1,1.88,1.13,9.78,9.78,0,0,1,2.08,2.19A10,10,0,0,1,27.06,27a10.32,10.32,0,0,1,.46,3.07Zm-1.37-.94h.43a9.3,9.3,0,0,0-.4-2.32A9.08,9.08,0,0,0,25,24.8a8.83,8.83,0,0,0-1.88-2,8.7,8.7,0,0,0-2.48-1.33l-1-.35.93-.51a6.15,6.15,0,0,0,1.37-1,6.65,6.65,0,0,0,1-1.33,6.49,6.49,0,0,0,.67-1.55,6.37,6.37,0,0,0-.26-4.17,6.36,6.36,0,0,0-11.71,0A6.23,6.23,0,0,0,11.15,15a6.31,6.31,0,0,0,.23,1.7A6.59,6.59,0,0,0,12,18.31a6.27,6.27,0,0,0,2.43,2.34l.92.5-1,.36a9.23,9.23,0,0,0-2.48,1.35,8.94,8.94,0,0,0-1.89,2,9.07,9.07,0,0,0-1.62,4.77h.43A8.73,8.73,0,0,1,10,25.66a8.45,8.45,0,0,1,3.09-3.09,8.71,8.71,0,0,1,2.08-.86,9.13,9.13,0,0,1,5.74.35,8.31,8.31,0,0,1,4.57,4.57A8.74,8.74,0,0,1,26.14,29.58ZM17.5,21a5.73,5.73,0,0,1-2.31-.47A6,6,0,0,1,12,17.36a5.9,5.9,0,0,1,0-4.61A6,6,0,0,1,15.19,9.6a5.92,5.92,0,0,1,4.61,0A6,6,0,0,1,23,12.74a5.9,5.9,0,0,1,0,4.61,6,6,0,0,1-3.15,3.15A5.73,5.73,0,0,1,17.5,21Zm0-10.91a4.81,4.81,0,0,0-1.93.39,5.06,5.06,0,0,0-2.66,2.66,5,5,0,0,0,0,3.87,5.06,5.06,0,0,0,2.66,2.66,5,5,0,0,0,3.87,0A5.05,5.05,0,0,0,22.09,17a5,5,0,0,0,0-3.87,5.06,5.06,0,0,0-2.66-2.66A4.81,4.81,0,0,0,17.5,10.06Z"/><path class="cls-1" d="M17.5,34A16.53,16.53,0,1,1,34,17.47,16.55,16.55,0,0,1,17.5,34Zm0-31.19A14.66,14.66,0,1,0,32.16,17.47,14.68,14.68,0,0,0,17.5,2.81Z"/></svg>